<svg width="78" height="18" xmlns="http://www.w3.org/2000/svg" xmlns:xlink="http://www.w3.org/1999/xlink" xml:space="preserve" overflow="hidden"><defs><clipPath id="clip0"><rect x="0" y="0" width="78" height="18"/></clipPath></defs><g clip-path="url(#clip0)"><path d="M3.08957 14.3761 0.211705 14.3761 0.211705 2.82494 3.08295 2.82494 3.08295 14.3761ZM27.0188 11.4916 17.8626 11.4916C18.0611 13.4433 19.0997 14.7399 21.1242 14.7399 22.5069 14.7399 23.5323 14.1181 24.088 12.9338L26.8733 13.7807C25.8875 16.1094 23.6779 17.3863 21.2896 17.3863 17.3863 17.3863 14.8326 14.6473 14.8326 10.8499 14.8326 6.52977 17.5583 4.02901 21.1242 4.02901 25.259 4.02901 27.3232 7.19135 27.0188 11.4916ZM24.1542 9.36132C23.9359 7.52875 23.1155 6.50331 21.2433 6.50331 19.371 6.50331 18.2728 7.42952 17.9288 9.36132L24.1542 9.36132ZM62.9954 11.4916 53.8392 11.4916C54.0377 13.4433 55.0763 14.7399 57.1008 14.7399 58.4835 14.7399 59.5089 14.1181 60.0646 12.9338L62.8499 13.7807C61.8641 16.1094 59.6545 17.3863 57.2662 17.3863 53.3628 17.3863 50.8092 14.6473 50.8092 10.8499 50.8092 6.52977 53.5349 4.02901 57.1008 4.02901 61.2356 4.02901 63.2997 7.19135 62.9954 11.4916ZM60.1308 9.36132C59.9125 7.52875 59.0921 6.50331 57.2198 6.50331 55.3476 6.50331 54.2494 7.42952 53.9053 9.36132L60.1308 9.36132ZM28.2824 17.0356 31.1074 17.0356 31.1074 0.165394 28.2824 0.165394 28.2824 17.0356ZM33.1583 17.0356 35.9766 17.0356 35.9766 4.37964 33.1583 4.37964 33.1583 17.0356ZM33.1583 3.12265 35.9766 3.12265 35.9766 0.165394 33.1583 0.165394 33.1583 3.12265ZM44.683 4.02901C43.0224 4.02901 41.6331 4.67074 40.5481 6.08651L40.5481 4.37964 38.0275 4.37964 38.0275 17.029 40.8855 17.029 40.8855 10.5323C40.8855 8.36896 41.686 6.67532 43.8494 6.67532 46.1913 6.67532 46.8 8.62036 46.8 10.9425L46.8 17.029 49.658 17.029 49.658 9.96997C49.658 6.89364 48.4275 4.02901 44.683 4.02901ZM75.0361 9.2687 75.0361 17.0356 72.5618 17.0356 72.5618 15.3288C71.4173 16.8371 70.0081 17.3863 68.116 17.3863 65.3903 17.3863 63.8753 15.6662 63.8753 13.569 63.8753 11.6239 64.8677 10.4198 66.7598 9.78473 68.4071 9.26209 70.4911 9.02392 72.2641 8.75929 72.145 7.16489 71.2651 6.62901 69.6773 6.62901 68.6651 6.62901 67.3023 7.0458 66.912 8.39542L64.3318 7.58829C64.6494 6.52315 65.2382 5.6631 66.1181 5.01476 66.998 4.36641 68.1822 4.04224 69.6707 4.04224 73.6667 4.04224 74.8046 6.25852 74.9567 7.76692 75.0163 8.21679 75.0361 8.71959 75.0361 9.2687ZM72.2377 11.0682C71.3048 11.2137 70.3588 11.3659 69.3466 11.5644 68.0962 11.8158 66.6539 12.2458 66.6539 13.5226 66.6539 14.3761 67.2758 15.1303 68.6916 15.1303 70.7756 15.1303 72.1318 13.7344 72.2112 11.7959 72.2244 11.5247 72.2377 11.0682 72.2377 11.0682ZM72.2377 11.0219C72.2377 11.002 72.2377 10.9954 72.2377 11.0219L72.2377 11.0219ZM72.2377 11.0483 72.2377 11.0219 72.2377 11.0483ZM6.43053 0.165394 3.08957 0.165394 3.08957 2.82494C3.08957 2.82494 4.58473 2.81832 5.59695 2.82494 6.41069 2.83155 6.88041 2.82494 7.45598 2.95064 9.93028 3.42036 10.8697 6.06667 10.8697 8.60051 10.8697 11.1344 9.93028 13.774 7.45598 14.2504 6.88702 14.3761 6.41069 14.3761 5.59695 14.3761 4.57812 14.3827 3.08957 14.3761 3.08957 14.3761L3.08957 17.0356 6.43053 17.0356C11.9018 17.0356 13.8534 12.5501 13.8534 8.60051 13.8534 4.65089 11.8952 0.165394 6.43053 0.165394Z" fill="#231556" transform="scale(1 1.01521)"/></g></svg>